<?xml version="1.0" encoding="UTF-8" standalone="no"?>
<!-- Created with Inkscape (http://www.inkscape.org/) -->

<svg
xmlns="http://www.w3.org/2000/svg"><defs
    id="defs182" /><g
    id="layer1"><path
      style="fill:#000000;stroke-width:1"
      d="m 2.8834654,144.76286 c 0.300664,-0.43713 0.423824,-0.61428 0.842841,-1.21233 1.424207,-2.03272 1.797836,-2.56646 2.396516,-3.42347 0.375823,-0.53799 0.782504,-1.12056 0.903738,-1.29459 0.121233,-0.17403 0.527915,-0.75619 0.903737,-1.29369 0.375823,-0.53749 1.053795,-1.50757 1.506606,-2.15574 0.45281,-0.64816 1.0578736,-1.51376 1.3445846,-1.92354 0.286711,-0.40978 0.654454,-0.93549 0.817205,-1.16825 0.162751,-0.23275 0.407532,-0.58189 0.543957,-0.77586 0.228229,-0.3245 0.639338,-0.91351 1.261567,-1.80747 0.135011,-0.19398 0.67957,-0.97208 1.21013,-1.72911 0.530561,-0.75704 1.127129,-1.61008 1.325706,-1.89565 0.198577,-0.28557 0.684612,-0.97999 1.080077,-1.54316 0.862227,-1.22787 2.008259,-2.86563 2.287605,-3.26915 0.191191,-0.27618 1.276095,-1.82856 1.913785,-2.73842 0.850597,-1.21365 1.61469,-2.305 1.805605,-2.57896 0.118279,-0.16973 0.51336,-0.73511 0.877958,-1.25642 0.779781,-1.11493 0.909678,-1.30565 0.909678,-1.33567 0,-0.0123 -0.223179,-0.15571 -0.495953,-0.31865 -1.422638,-0.84981 -2.6603,-1.66858 -4.022735,-2.66121 -0.975854,-0.71098 -2.910513,-2.27416 -3.636993,-2.93864 -0.10911,-0.0998 -0.466196,-0.42668 -0.793526,-0.7264 -0.641243,-0.58716 -1.971788,-1.93557 -2.89159,-2.9304 -1.186194,-1.28297 -2.361321,-2.72512 -3.5786426,-4.391829 -0.39395,-0.53938 -1.001584,-1.4389 -1.649129,-2.44131 -0.20418,-0.31608 -0.840875,-1.37085 -1.184185,-1.96177 -0.5439,-0.93619 -1.496283,-2.80096 -2.093912,-4.09989 -0.281829,-0.61255 -0.364237,-0.8065 -0.842875,-1.98381 -1.477793,-3.63494 -2.585488,-7.7258 -3.09764402,-11.44 -0.562266,-4.0776 -0.666221,-7.39581 -0.354257,-11.30774 0.216343,-2.71287 0.654351,-5.34194 1.35875202,-8.15568 0.36326,-1.45105 1.08011,-3.78042 1.526269,-4.95954 0.06422,-0.16973 0.18305,-0.48714 0.264062,-0.70535 0.254047,-0.68432 0.838759,-2.05912 1.246843,-2.93164 2.572365,-5.49996 6.0105966,-10.39984 10.1773466,-14.50389 2.010931,-1.98067 3.882649,-3.57014 5.993588,-5.08976 0.292501,-0.21057 2.665809,-1.79101 2.824436,-1.88087 0.06929,-0.0393 0.354122,-0.20949 0.632959,-0.37833 0.799119,-0.48386 1.071165,-0.6381 2.160153,-1.22477 3.444417,-1.85559 7.506154,-3.4102 11.395911,-4.36174 1.279922,-0.3131 1.560733,-0.3755 2.601001,-0.57795 2.887384,-0.56191 6.384629,-0.90332 9.245417,-0.90255 2.758233,7.4e-4 6.001739,0.27056 8.564827,0.7125 3.905152,0.67334 7.630773,1.78389 11.456603,3.41501 l 0.391322,0.16684 0.0867,-0.10813 c 0.04768,-0.0595 0.142786,-0.17756 0.211338,-0.26242 0.230338,-0.28513 0.792269,-0.98957 1.002245,-1.25642 0.114474,-0.14548 0.219233,-0.27443 0.232798,-0.28655 0.01356,-0.0121 0.347868,-0.42872 0.742902,-0.92578 0.39503,-0.49705 0.75124,-0.94361 0.79157,-0.99233 0.0403,-0.0487 0.27135,-0.33639 0.51335,-0.63923 0.242,-0.30285 0.45082,-0.56055 0.46403,-0.57268 0.0132,-0.0121 0.0924,-0.11131 0.17604,-0.22042 0.0836,-0.10911 0.16256,-0.2083 0.17545,-0.22042 0.0129,-0.0121 0.0759,-0.0926 0.14015,-0.17883 0.0642,-0.0862 0.15819,-0.20526 0.20889,-0.26451 0.0507,-0.0592 0.24229,-0.29619 0.42579,-0.52653 0.1835,-0.23034 0.36721,-0.45848 0.40825,-0.50697 0.041,-0.0485 0.22075,-0.27168 0.39935,-0.49596 0.17861,-0.22428 0.33071,-0.40778 0.33801,-0.40778 0.007,0 -0.1258,0.30253 -0.29578,0.67229 -0.16998,0.36976 -0.33936,0.75165 -0.37638,0.84863 -0.037,0.097 -0.14215,0.33505 -0.23358,0.52902 -0.15349,0.32561 -1.03961,2.29825 -1.16839,2.601 -0.0309,0.0727 -0.33795,0.75716 -0.68224,1.52093 -0.34429,0.76376 -0.64347,1.42834 -0.66483,1.47683 -0.0214,0.0485 -0.15843,0.3538 -0.30459,0.67846 -0.14616,0.32466 -0.26574,0.60642 -0.26574,0.62614 0,0.0197 0.16059,0.11682 0.35688,0.2158 0.19628,0.099 0.48197,0.24869 0.63486,0.3327 0.27022,0.14849 0.41897,0.19002 0.41897,0.11699 0,-0.0197 0.0353,-0.0742 0.0785,-0.12123 0.0432,-0.047 0.40119,-0.55166 0.79554,-1.12146 0.39435,-0.56979 0.89779,-1.29388 1.11874,-1.60909 0.22096,-0.31521 0.57082,-0.82108 0.77749,-1.12416 0.20666,-0.30308 0.3882,-0.56098 0.40342,-0.5731 0.0152,-0.0121 0.22487,-0.30839 0.46589,-0.65836 0.56758,-0.82414 1.3734,-1.98044 1.95012,-2.79828 0.10414,-0.14769 0.29669,-0.42723 0.42788,-0.6212 0.32925,-0.48685 0.93598,-1.35142 1.00957,-1.43862 0.0334,-0.0396 0.14559,-0.19829 0.24929,-0.35267 0.28714,-0.42749 0.57618,-0.84652 0.96905,-1.40486 0.1962,-0.27884 0.3897,-0.55657 0.42999,-0.61719 0.0403,-0.0606 0.0861,-0.12013 0.10175,-0.13225 0.0157,-0.0121 0.13515,-0.18343 0.26552,-0.38067 0.13038,-0.19725 0.43543,-0.64055 0.67789,-0.98512 0.24247,-0.34458 0.58566,-0.83785 0.76264,-1.09617 0.17699,-0.25832 0.36036,-0.51927 0.4075,-0.57989 0.0795,-0.10221 0.4511,-0.63479 1.21059,-1.7349597 0.1698,-0.24598 0.47624,-0.68529 0.68096,-0.97625 0.87075,-1.23753 1.26499,-1.80284 1.36309,-1.95453 0.0575,-0.0889 0.15816,-0.22106 0.22379,-0.2938 0.0656,-0.0727 0.19597,-0.24136 0.28966,-0.37472 0.5919,-0.8425 3.96134,-5.54062995 3.99956,-5.57671995 0.0625,-0.059 0.0173,0.0215 -1.80678,3.21818995 -2.04703,3.58735 -2.83412,4.95969 -3.31227,5.7751 -0.21326,0.3637 -0.60163,1.0282797 -0.86303,1.4768397 -0.2614,0.44857 -0.56806,0.97428 -0.68147,1.16825 -0.11341,0.19397 -0.46321,0.79436 -0.77733,1.33419 -0.31412,0.53983 -0.77728,1.33336 -1.02925,1.76339 -0.25196,0.43003 -0.58181,1.0001 -0.73299,1.26681 -0.34878,0.61529 -1.42994,2.46364 -1.58159,2.70387 -0.0632,0.10006 -0.11484,0.194 -0.11484,0.20876 0,0.0148 -0.25687,0.46027 -0.57083,0.99003 -0.31395,0.52976 -0.64484,1.09835 -0.73532,1.26353 -0.0905,0.16518 -0.31207,0.5483 -0.49244,0.85138 -0.18037,0.30308 -0.4765,0.80896 -0.65808,1.12416 -0.18157,0.31521 -0.34538,0.59294 -0.364,0.61719 -0.0186,0.0243 -0.10951,0.18295 -0.20195,0.35268 -0.0924,0.16972 -0.41232,0.72066 -0.71084,1.22431 -0.29852,0.50365 -0.54277,0.92457 -0.54277,0.93538 0,0.0108 -0.22814,0.40566 -0.50697,0.87745 -0.27884,0.47178 -0.50698,0.87841 -0.50698,0.90361 0,0.0252 0.0446,0.0693 0.0992,0.098 0.31023,0.16333 2.07779,1.366 2.9647,2.01722 2.81915,2.06998 5.49949,4.52538 7.87434,7.2135 0.4409,0.49907 0.74407,0.85905 1.55937,1.85156 0.3231,0.39333 1.00728,1.30479 1.57187,2.09403 4.58276,6.40625 7.62276,13.98186 8.7392,21.77787 0.11556,0.80693 0.18055,1.41124 0.36033,3.35044 0.19221,2.07328 0.19261,5.37167 9.2e-4,7.64871 -0.12851,1.52673 -0.32056,3.1469 -0.4886,4.12193 -0.26288,1.52533 -0.30382,1.73732 -0.57478,2.97572 -0.53609,2.4502 -1.33232,5.0189 -2.32307,7.49441 -0.55857,1.39564 -0.91648,2.19159 -1.66516,3.70312 -2.83682,5.72729 -6.66366,10.749129 -11.4412,15.013949 -4.62592,4.12947 -10.09639,7.40818 -15.934921,9.55056 -0.996241,0.36556 -3.129233,1.05074 -4.033756,1.29576 -0.482362,0.13066 -1.827732,0.47271 -2.071984,0.52678 -2.385858,0.52815 -4.631611,0.87138 -6.767011,1.03422 -0.472809,0.0361 -1.028277,0.0855 -1.234373,0.10993 -0.591388,0.07 -3.906241,0.10194 -5.113832,0.0492 -1.1418,-0.0498 -2.232969,-0.13573 -3.107976,-0.24461 -0.29096,-0.0362 -0.886104,-0.1074 -1.322543,-0.15823 -1.104077,-0.12857 -1.280195,-0.15319 -2.005857,-0.28034 -1.543905,-0.27052 -3.376394,-0.67542 -4.606857,-1.01792 -1.248181,-0.34742 -2.154687,-0.62841 -3.277971,-1.01604 -0.323843,-0.11176 -0.592861,-0.19703 -0.597821,-0.1895 -0.005,0.008 -0.286608,0.34102 -0.62588,0.74109 -0.339272,0.40007 -0.734831,0.86745 -0.879019,1.03863 -0.144188,0.17118 -0.640794,0.75641 -1.103574,1.30051 -0.462775,0.54409 -0.94881,1.11627 -1.080077,1.27149 -0.503615,0.59554 -0.841203,0.99337 -1.708597,2.01348 -0.49326,0.5801 -1.088405,1.28103 -1.322543,1.55761 -0.234139,0.27659 -0.574495,0.67441 -0.756345,0.88405 -0.181849,0.20965 -0.419907,0.48824 -0.529017,0.61909 -0.10911,0.13086 -0.277734,0.32916 -0.37472,0.44069 -0.09699,0.11152 -0.265611,0.30991 -0.374721,0.44085 -0.10911,0.13094 -0.277734,0.32986 -0.37472,0.44203 -0.263742,0.30505 -1.02272,1.1984 -1.103875,1.29931 -0.184683,0.22964 -0.15237,0.18021 3.25686,-4.98157 1.183729,-1.79224 4.103458,-6.20374 4.691452,-7.08844 0.25447,-0.38287 0.455219,-0.70202 0.446111,-0.70921 -0.0091,-0.007 -0.101893,-0.0463 -0.206184,-0.0869 -0.482513,-0.1879 -2.985456,-1.32308 -3.233106,-1.46633 -0.01551,-0.009 -0.266757,0.27611 -0.558325,0.63353 -1.518774,1.86176 -1.839151,2.25352 -1.991569,2.43528 -0.248942,0.29686 -0.817863,0.99016 -1.191153,1.45155 -0.181849,0.22477 -0.545229,0.66957 -0.80751,0.98846 -0.262282,0.31889 -0.589611,0.71793 -0.727399,0.88677 -0.137788,0.16883 -0.350161,0.42673 -0.47194,0.5731 -0.248375,0.29853 -2.097653,2.55536 -2.908602,3.54961 -0.290959,0.35672 -1.054727,1.28859 -1.697263,2.07081 -0.642535,0.78223 -1.227761,1.4973 -1.3005,1.58906 -0.07274,0.0918 -0.657965,0.80682 -1.300501,1.58905 -0.642535,0.78222 -1.406304,1.71396 -1.697263,2.07052 -0.29096,0.35656 -1.054728,1.2889 -1.697264,2.07187 -0.642535,0.78296 -1.5023626,1.83222 -1.9107276,2.33169 -1.237274,1.51329 -2.012191,2.46005 -2.475705,3.02471 -0.242467,0.29537 -0.731339,0.8922 -1.086384,1.32629 -2.47754,3.02911 -2.961975,3.61811 -3.02407,3.67681 -0.03847,0.0364 0.04603,-0.1025 0.187783,-0.3086 z M 52.345695,116.46235 c 0.315206,-0.0242 0.860755,-0.0652 1.212331,-0.0911 4.796326,-0.35249 9.776907,-1.58807 14.481845,-3.59265 2.119106,-0.90287 4.676351,-2.23953 6.326161,-3.30665 0.15761,-0.10194 0.4651,-0.30008 0.68332,-0.44031 1.61991,-1.04095 3.69931,-2.62227 5.33425,-4.05653 1.02003,-0.89481 3.20384,-3.07862 4.09865,-4.09865 4.85231,-5.531259 8.3182,-12.082529 10.11462,-19.118789 0.0971,-0.38024 0.22758,-0.92579 0.29,-1.21233 0.0624,-0.28653 0.14272,-0.64992 0.17845,-0.80752 0.3157,-1.39283 0.68958,-4.02207 0.81496,-5.73102 0.0258,-0.35158 0.0655,-0.88721 0.0883,-1.19029 0.1165,-1.55075 0.0957,-4.12196 -0.0471,-5.81919 -0.3372,-4.0079 -0.80335,-6.54257 -1.86472,-10.1395 -1.30304,-4.41592 -3.43403,-8.85145 -6.17396,-12.8507 -2.71613,-3.96447 -6.24755,-7.65568 -10.14886,-10.60805 -3.69177,-2.79379 -7.738127,-5.0038 -12.074648,-6.59485 -3.246561,-1.19115 -6.956735,-2.08623 -10.188271,-2.45792 -2.144583,-0.24668 -2.980752,-0.29678 -5.33818,-0.31985 -1.265563,-0.0124 -2.348849,-0.0105 -2.407297,0.004 -0.06658,0.0167 -0.363849,0.33034 -0.795933,0.83975 -0.379309,0.44719 -0.689657,0.82553 -0.689657,0.84077 0,0.0152 -0.735678,0.89453 -1.634844,1.954 -1.587285,1.87026 -1.808939,2.13121 -3.040495,3.57947 -0.319588,0.37583 -0.685082,0.80235 -0.812205,0.94783 -0.127127,0.14548 -0.811459,0.94892 -1.520743,1.78543 -0.709284,0.83651 -1.309966,1.52846 -1.334847,1.53766 -0.05896,0.0218 -0.113395,0.10798 0.929708,-1.47153 0.496381,-0.75165 1.071176,-1.62453 1.277316,-1.93973 0.206145,-0.31521 0.767719,-1.16825 1.247943,-1.89565 0.48022,-0.7274 1.298728,-1.96728 1.818897,-2.75529 0.520174,-0.78802 0.983981,-1.47244 1.030685,-1.52093 0.122568,-0.12727 1.112805,-1.63587 1.112805,-1.69533 0,-0.0317 -0.05251,-0.0417 -0.143276,-0.0274 -0.0788,0.0125 -0.407374,0.0558 -0.730162,0.0962 l -0.586883,0.0736 -0.345735,0.42374 c -0.190151,0.23306 -0.497995,0.60938 -0.684098,0.83627 -0.186104,0.2269 -0.37149,0.46795 -0.411968,0.53567 -0.04048,0.0677 -0.389961,0.50699 -0.776624,0.97614 -0.386663,0.46915 -0.912374,1.1089 -1.168246,1.42166 -0.48991,0.59883 -0.974525,1.18954 -1.920019,2.34037 -0.315206,0.38365 -0.81116,0.98878 -1.102119,1.34472 -0.29096,0.35594 -0.786913,0.961 -1.102119,1.34458 -0.315206,0.38358 -0.81116,0.98885 -1.102119,1.34503 -0.29096,0.35618 -1.144,1.3976 -1.895645,2.31426 -0.751645,0.91666 -1.604686,1.95816 -1.895645,2.31444 -0.290959,0.35628 -0.786913,0.96163 -1.102119,1.34521 -0.315206,0.38358 -0.81116,0.98851 -1.102119,1.34429 -0.731318,0.89423 -1.765925,2.15736 -2.292408,2.79872 -1.122773,1.36778 -1.774255,2.16337 -1.895645,2.31497 -0.153327,0.19149 -0.98092,1.20218 -2.490789,3.04185 -0.587046,0.71528 -1.351002,1.64767 -1.69768,2.07199 -2.82004,3.45158 -3.063474,3.74402 -3.063474,3.6802 0,-0.0332 0.158444,-0.2633 1.358256,-1.97256 0.395465,-0.56338 0.881499,-1.25782 1.080077,-1.5432 0.198577,-0.28537 0.685162,-0.97971 1.0813,-1.54297 0.396137,-0.56325 0.786638,-1.12328 0.867779,-1.24452 0.08114,-0.12123 0.471201,-0.68139 0.866801,-1.24481 1.206667,-1.71853 2.371411,-3.38424 2.890363,-4.13353 0.117548,-0.16972 0.401502,-0.57641 0.631003,-0.90374 0.229501,-0.32733 0.476525,-0.68038 0.548939,-0.78456 0.07241,-0.10418 0.266827,-0.38191 0.432031,-0.61718 0.165199,-0.23528 0.389775,-0.55672 0.499061,-0.71432 0.109282,-0.15761 0.311367,-0.44712 0.449074,-0.64337 0.137708,-0.19625 0.696738,-0.99495 1.242287,-1.77488 0.545549,-0.77994 1.315114,-1.87909 1.710145,-2.44257 0.39503,-0.56348 0.881064,-1.25799 1.080076,-1.54337 0.199012,-0.28537 0.685514,-0.97971 1.081113,-1.54297 0.395599,-0.56325 0.785661,-1.12328 0.866799,-1.24452 0.08114,-0.12123 0.474921,-0.68662 0.875065,-1.25641 0.400144,-0.5698 0.859785,-1.22446 1.021426,-1.4548 0.161637,-0.23034 0.482107,-0.68662 0.712154,-1.01395 0.230043,-0.32733 0.516678,-0.73896 0.636959,-0.91474 0.120281,-0.17578 0.275009,-0.38408 0.343835,-0.46289 0.2367,-0.27103 1.417708,-1.99401 1.376251,-2.00782 -0.05207,-0.0174 -1.618964,0.3743 -2.447009,0.61165 -3.874755,1.11065 -7.589976,2.72592 -11.070146,4.81298 -5.377982,3.22518 -10.045003,7.52338 -13.723614,12.63908 -2.3265846,3.23549 -4.4182806,7.12419 -5.7395656,10.67048 -0.07679,0.20609 -0.169776,0.45407 -0.206642,0.55106 -0.175073,0.46058 -0.69637,2.07046 -0.913607,2.82142 -0.886135,3.06326 -1.439252,6.06438 -1.706237,9.2578 -0.115665,1.38347 -0.166667,5.01937 -0.08669,6.18026 0.278228,4.03871 0.783759,7.03671 1.752297,10.39181 0.355905,1.23289 1.095112,3.42037 1.155832,3.42037 0.015,0 0.195804,-0.21137 0.401783,-0.46972 0.205979,-0.25834 0.394631,-0.49144 0.419226,-0.51799 0.126432,-0.1365 0.330002,-0.41917 0.330002,-0.45824 0,-0.039 0.07005,-0.13184 0.389454,-0.51597 0.04039,-0.0486 0.142869,-0.17746 0.227733,-0.2864 0.08486,-0.10895 0.187343,-0.23783 0.227732,-0.28641 0.04039,-0.0486 0.139581,-0.17053 0.220424,-0.27101 0.154769,-0.19237 0.211638,-0.26403 0.65965,-0.83125 0.153206,-0.19397 0.289374,-0.3626 0.302594,-0.37472 0.01322,-0.0121 0.221863,-0.27002 0.4636506,-0.5731 0.241788,-0.30309 0.464718,-0.57741 0.495401,-0.60961 0.03068,-0.0322 0.07619,-0.0967 0.101134,-0.14327 0.04976,-0.093 0.130415,-0.11418 0.130415,-0.0343 0,0.0277 -0.168625,0.42164 -0.374721,0.87533 -0.206096,0.45368 -0.37472,0.83921 -0.37472,0.85673 0,0.0175 -0.06767,0.17413 -0.1503726,0.34802 -0.132551,0.2787 -1.128291,2.48041 -1.279436,2.829 -0.238179,0.54932 -0.360501,0.79824 -0.406445,0.82712 -0.0294,0.0185 -0.09271,0.1375 -0.14068,0.26451 -0.04798,0.127 -0.228876,0.53841 -0.402,0.91423 -0.249676,0.542 -0.309201,0.71066 -0.287832,0.81557 0.0359,0.17625 0.78101,1.75204 0.837248,1.77066 0.02425,0.008 0.113518,-0.088 0.198381,-0.21341 0.08486,-0.12539 0.308043,-0.44562 0.495954,-0.71162 0.187911,-0.26599 0.341657,-0.50756 0.341657,-0.53682 0,-0.0293 0.154379,-0.26942 0.343064,-0.53368 0.3933486,-0.55092 1.4459616,-2.06393 1.9851826,-2.85348 0.201561,-0.29513 0.405429,-0.5862 0.453039,-0.64682 0.04761,-0.0606 0.239783,-0.33249 0.427051,-0.60417 0.187267,-0.27168 0.558706,-0.80584 0.825419,-1.18702 0.266712,-0.38118 0.595374,-0.85324 0.73036,-1.04901 0.134986,-0.19576 0.428559,-0.61384 0.652386,-0.92904 0.223826,-0.31521 0.497993,-0.71197 0.609259,-0.8817 0.111266,-0.16973 0.215106,-0.31851 0.230756,-0.33063 0.01565,-0.0121 0.09551,-0.12801 0.17747,-0.25753 0.08196,-0.12952 0.171035,-0.25846 0.197947,-0.28655 0.05087,-0.0531 0.680134,-0.95009 1.149181,-1.63812 0.148764,-0.21822 0.458918,-0.66458 0.689231,-0.99191 0.230313,-0.32733 0.529394,-0.75385 0.664625,-0.94782 0.135232,-0.19397 0.273013,-0.3827 0.306181,-0.4194 0.03317,-0.0367 0.108677,-0.13589 0.167798,-0.22042 0.05912,-0.0845 0.119678,-0.16362 0.134573,-0.17575 0.01489,-0.0121 0.203278,-0.27994 0.41863,-0.59514 0.215352,-0.31521 0.404737,-0.58302 0.420856,-0.59515 0.01612,-0.0121 0.120281,-0.16091 0.23147,-0.33063 0.11119,-0.16973 0.279229,-0.41771 0.373421,-0.55106 0.09419,-0.13336 0.280406,-0.40117 0.41381,-0.59515 0.133404,-0.19397 0.36809,-0.53122 0.521524,-0.74944 0.153434,-0.21822 0.361108,-0.51579 0.461497,-0.66127 0.324469,-0.4702 0.527655,-0.74843 0.579497,-0.79352 0.02788,-0.0242 0.922144,-1.26414 1.987261,-2.7553 1.065118,-1.49117 2.08236,-2.91473 2.260537,-3.16348 0.178178,-0.24874 0.331174,-0.44504 0.339991,-0.43622 0.012,0.012 -3.684473,6.54401 -3.908151,6.90606 -0.02247,0.0364 -0.198658,0.34386 -0.391528,0.68331 -0.19287,0.33945 -0.59345,1.02387 -0.890176,1.52092 -0.296727,0.49706 -0.708359,1.20131 -0.914739,1.56501 -0.206379,0.3637 -0.392033,0.66789 -0.412564,0.67597 -0.02053,0.008 -0.03733,0.0337 -0.03733,0.057 0,0.0233 -0.198382,0.38078 -0.440848,0.79444 -0.242466,0.41367 -0.440848,0.77037 -0.440848,0.79267 0,0.0405 -0.164631,0.32825 -1.257825,2.19859 -0.318868,0.54555 -0.592697,1.02166 -0.608509,1.05803 -0.01581,0.0364 -0.04791,0.0959 -0.07134,0.13226 -0.06117,0.095 -0.502359,0.8427 -0.944137,1.60011 -0.209255,0.35876 -0.380464,0.66956 -0.380464,0.69067 0,0.0211 -0.01619,0.045 -0.03597,0.0531 -0.01978,0.008 -0.122795,0.1734 -0.228912,0.36737 -0.106117,0.19397 -0.394189,0.69085 -0.640158,1.10415 -0.24597,0.41332 -0.523503,0.88943 -0.61674,1.05804 -0.09324,0.16861 -0.46094,0.80251 -0.817117,1.40868 -0.356177,0.60616 -0.680139,1.16163 -0.719918,1.23437 -0.03978,0.0727 -0.09088,0.16201 -0.113568,0.19838 -0.02268,0.0364 -0.184199,0.31411 -0.358922,0.61719 -0.174722,0.30308 -0.430823,0.74048 -0.569111,0.972 -0.138289,0.23152 -0.316223,0.53901 -0.395409,0.68331 -0.321502,0.5859 -0.947531,1.63597 -1.036874,1.73922 -0.159782,0.18464 -0.9036736,1.48724 -0.9036736,1.58238 0,0.10505 0.7302156,1.30481 1.4231376,2.33825 1.619958,2.41603 3.333407,4.511739 5.470752,6.691249 4.00785,4.08692 8.847219,7.44165 14.090456,9.76771 1.225001,0.54345 1.714893,0.74313 3.019807,1.23091 2.919791,1.0914 6.749337,2.02342 9.742732,2.37113 0.436439,0.0507 1.120855,0.13084 1.520925,0.17809 0.642707,0.0759 2.134482,0.19012 3.085933,0.23624 0.585825,0.0284 3.486518,-0.0138 4.07784,-0.0593 z m 1.168247,-6.61635 c -1.971127,-0.20386 -3.439075,-0.64759 -4.677627,-1.41397 -0.994063,-0.61509 -2.067192,-1.59006 -2.746723,-2.49549 -0.502602,-0.66967 -0.926834,-1.61065 -1.084353,-2.40516 -0.08138,-0.4105 -0.08831,-0.86184 -0.0201,-1.31031 0.230079,-1.51281 0.263059,-1.67857 0.429783,-2.16016 0.527161,-1.522719 1.590754,-2.958299 2.80279,-3.783049 1.746678,-1.18855 3.832676,-1.66236 6.332221,-1.43828 0.337345,0.0302 1.822001,0.27399 1.877402,0.30823 0.01892,0.0117 0.12003,0.0393 0.2247,0.0613 0.863158,0.18147 2.612926,0.85055 3.635009,1.38997 1.606881,0.84805 3.037692,2.09131 4.003245,3.478499 0.504934,0.72543 0.782015,1.49715 0.85438,2.37962 0.04424,0.53944 0.03849,0.65789 -0.05979,1.231 -0.09243,0.53908 -0.156893,0.74861 -0.370602,1.20466 -0.972109,2.07443 -3.621647,3.95932 -6.592969,4.69027 -1.318382,0.32432 -3.055211,0.42342 -4.607369,0.2629 z m 7.750242,-19.586899 c -1.150696,-0.3243 -1.298164,-1.88897 -0.227693,-2.41596 0.247073,-0.12163 0.339884,-0.14378 0.592825,-0.14146 0.733606,0.007 1.293963,0.59394 1.283316,1.34484 -0.0045,0.31697 -0.117785,0.58355 -0.359396,0.84567 -0.32263,0.35001 -0.833282,0.49536 -1.289052,0.36691 z m 9.530985,-1.67798 c -0.705039,-0.15833 -1.271013,-0.70001 -1.455428,-1.39296 -0.232283,-0.8728 0.310939,-1.92158 1.22728,-2.36948 0.323036,-0.1579 0.358325,-0.16535 0.779207,-0.1644 0.804254,0.002 1.293534,0.24128 1.587234,0.77687 0.11226,0.2047 0.12964,0.28298 0.13077,0.58877 9.7e-4,0.26293 -0.0198,0.39194 -0.0816,0.50697 -0.0592,0.11026 -0.0846,0.25497 -0.0889,0.50698 -0.005,0.29066 -0.0279,0.39675 -0.13034,0.60337 -0.22628,0.45619 -0.73854,0.84677 -1.254084,0.95615 -0.283853,0.0602 -0.400281,0.0582 -0.714208,-0.0123 z m -17.567778,-4.29017 c -0.651542,-0.0206 -1.87314,-0.10898 -2.358535,-0.17062 -1.608732,-0.20428 -3.399702,-0.88676 -4.506054,-1.71708 -0.457833,-0.34361 -1.127635,-1.03946 -1.424308,-1.47969 -0.467735,-0.69407 -0.927618,-1.79554 -1.084057,-2.59643 -0.09783,-0.50085 -0.07024,-1.44008 0.06087,-2.07199 0.06288,-0.30308 0.165975,-0.8242 0.229091,-1.15804 0.310793,-1.64384 1.026262,-3.45093 2.193102,-5.5392 0.668475,-1.19636 1.324302,-2.09344 2.081978,-2.84789 1.561266,-1.55461 3.240543,-2.26592 5.623479,-2.382 1.371843,-0.0668 3.689467,0.22608 5.598765,0.7076 1.311808,0.33083 2.430229,0.53596 3.967628,0.72771 2.524691,0.3149 3.675056,0.60095 4.959536,1.23325 0.818826,0.40308 1.366504,0.77116 1.867638,1.25519 0.733129,0.70812 1.169749,1.37497 1.473388,2.25032 0.48246,1.39084 0.4639,2.6681 -0.06212,4.27455 -0.380275,1.16136 -0.858392,1.90115 -1.911846,2.9582 -0.929051,0.93222 -2.270418,1.94449 -3.804466,2.87105 -2.760787,1.66751 -6.958445,3.21504 -9.534428,3.515 -0.956891,0.11143 -2.600631,0.19439 -3.369667,0.17007 z m 27.597061,-0.85692 c -0.30349,-0.0567 -1.22428,-0.51388 -1.53158,-0.76051 -0.6343,-0.50907 -1.04738,-1.28516 -1.04738,-1.9678 0,-0.44949 0.0687,-0.73188 0.28355,-1.16626 0.30475,-0.61602 0.83497,-1.19261 1.42147,-1.54578 0.35933,-0.21638 0.84307,-0.40601 1.09161,-0.42792 0.23927,-0.0211 0.81822,0.065 1.12349,0.16701 0.27396,0.0916 1.28385,0.78377 1.54251,1.05727 0.33881,0.35824 0.54616,0.83559 0.59578,1.37159 0.0532,0.57503 -0.31211,1.57328 -0.82079,2.24267 -0.60834,0.80052 -1.6745,1.21346 -2.65866,1.02973 z M 5.2163284,66.545191 c 0.09658,-1.8484 0.778919,-5.82593 1.306616,-7.61661 0.04665,-0.15828 0.08481,-0.31161 0.08481,-0.34073 0,-0.0291 0.04065,-0.18726 0.09032,-0.35143 0.04968,-0.16418 0.128663,-0.42745 0.17552,-0.58505 0.19554,-0.65768 0.454193,-1.48853 0.51386,-1.65063 0.03518,-0.0956 0.121312,-0.34356 0.191397,-0.55106 0.07008,-0.20749 0.189302,-0.53597 0.264929,-0.72995 0.07563,-0.19397 0.147861,-0.39235 0.160523,-0.44085 0.01266,-0.0485 0.0607,-0.17226 0.106761,-0.27504 0.04605,-0.10279 0.08441,-0.20198 0.08523,-0.22043 8.24e-4,-0.0185 0.03983,-0.1129 0.08667,-0.20988 0.04685,-0.097 0.08585,-0.20141 0.08667,-0.23205 8.24e-4,-0.0306 0.02107,-0.0901 0.045,-0.13225 0.02393,-0.0421 0.160404,-0.34436 0.303277,-0.67169 0.459064,-1.05174 1.239942,-2.65858 1.6603606,-3.41657 0.107587,-0.19398 0.231927,-0.42211 0.276313,-0.50698 0.04439,-0.0849 0.166544,-0.30308 0.271463,-0.48493 0.104918,-0.18185 0.213105,-0.37031 0.240416,-0.4188 0.02731,-0.0485 0.08109,-0.13777 0.119509,-0.19839 0.03842,-0.0606 0.127348,-0.20824 0.197619,-0.32807 0.07027,-0.11982 0.16744,-0.28125 0.215933,-0.35873 0.04849,-0.0775 0.156638,-0.25717 0.240321,-0.39933 0.08368,-0.14215 0.178376,-0.28513 0.21043,-0.31773 0.03205,-0.0326 0.08835,-0.11744 0.125102,-0.18851 0.06087,-0.1177 0.412963,-0.64638 0.74669,-1.12118 0.07274,-0.10348 0.210718,-0.304 0.306618,-0.44559 0.0959,-0.14158 0.237919,-0.33678 0.315598,-0.43376 0.07768,-0.097 0.207516,-0.26921 0.288527,-0.3827 0.244356,-0.34236 0.800119,-1.06909 0.853589,-1.11619 0.02753,-0.0242 0.18665,-0.22262 0.353604,-0.44084 0.166955,-0.21822 0.32722,-0.41661 0.356145,-0.44085 0.02893,-0.0242 0.235218,-0.26231 0.458428,-0.52902 1.056181,-1.26203 3.172846,-3.38887 4.451689,-4.47309 0.206096,-0.17473 0.489599,-0.4185 0.630007,-0.5417 0.227828,-0.19992 0.505164,-0.42239 0.884253,-0.70934 0.06907,-0.0523 0.158345,-0.12663 0.198381,-0.16521 0.04004,-0.0386 0.268411,-0.21712 0.507501,-0.39676 0.872693,-0.65568 0.865555,-0.65054 1.857699,-1.33784 0.121233,-0.084 0.240261,-0.16886 0.264508,-0.18861 0.02425,-0.0198 0.153195,-0.10439 0.286551,-0.18807 0.133356,-0.0837 0.252385,-0.16473 0.264509,-0.18008 0.01212,-0.0153 0.07164,-0.0536 0.132254,-0.0851 0.06062,-0.0314 0.301178,-0.18143 0.534585,-0.33328 0.233407,-0.15186 0.491303,-0.3104 0.573102,-0.35233 0.0818,-0.0419 0.158648,-0.0895 0.170771,-0.10574 0.01887,-0.0253 0.264046,-0.169 0.755816,-0.44312 0.06524,-0.0364 0.274008,-0.15477 0.463912,-0.2631 0.966616,-0.55143 2.805057,-1.46517 3.894104,-1.93546 0.40007,-0.17277 0.783563,-0.34391 0.852203,-0.38033 0.06864,-0.0364 0.147997,-0.0663 0.176339,-0.0665 0.02835,0 0.101602,-0.0264 0.162792,-0.0583 0.06119,-0.0319 0.170299,-0.0797 0.242466,-0.10603 0.07217,-0.0264 0.270077,-0.10053 0.439803,-0.16476 1.208994,-0.45753 2.225624,-0.80019 3.482696,-1.17388 0.169726,-0.0505 0.392906,-0.11875 0.495954,-0.15177 0.103048,-0.033 0.18736,-0.0477 0.18736,-0.0326 0,0.0151 -0.294191,0.31665 -0.653759,0.67019 -0.9348,0.91911 -2.280765,2.3528 -3.079414,3.28011 -0.976221,1.1335 -2.06441,2.67979 -3.471163,4.93245 -2.252652,3.6072 -4.581509,6.74241 -7.804863,10.50727 -0.146394,0.17098 -0.484391,0.56591 -0.751104,0.87761 -1.667528,1.94878 -3.947871,4.43228 -5.142403,5.60056 -1.572841,1.53826 -2.640203,2.50405 -4.556244,4.12266 -1.677345,1.41697 -2.033542,1.73811 -2.9536786,2.66299 -1.428183,1.43553 -2.021863,2.23279 -3.055555,4.10328 -0.294139,0.53225 -0.443002,0.89396 -0.898113,2.1822 l -0.303699,0.85965 z m 65.5567976,-2.28525 c -0.726715,-0.0308 -2.06094,-0.25272 -2.887552,-0.4802 -0.714984,-0.19676 -1.69341,-0.5401 -2.909594,-1.02099 -1.075192,-0.42514 -0.863793,-0.3189 -2.821425,-1.41788 -0.928002,-0.52096 -1.873757,-1.14953 -2.441423,-1.62262 -0.615498,-0.51295 -1.22821,-1.26989 -2.005231,-2.47725 -0.363179,-0.56431 -0.494745,-0.86498 -0.659578,-1.50732 -0.147838,-0.57611 -0.4709,-2.37055 -0.515893,-2.86551 -0.03118,-0.34299 0.02031,-0.8894 0.155778,-1.65318 0.04945,-0.27883 0.130182,-0.74503 0.179394,-1.03599 0.234795,-1.3882 0.546673,-2.17258 1.426358,-3.58735 0.63736,-1.02505 0.86064,-1.34253 1.682843,-2.39283 0.444167,-0.56739 1.370811,-1.46731 1.893397,-1.83879 0.542176,-0.38541 1.527497,-0.85342 2.384743,-1.13272 0.789324,-0.25717 0.930924,-0.29235 2.197876,-0.54609 1.981954,-0.39693 2.75085,-0.54088 3.085934,-0.57773 0.193973,-0.0213 0.571171,-0.0685 0.838214,-0.10488 0.267048,-0.0363 0.872111,-0.0989 1.344586,-0.13899 1.578909,-0.13399 2.681479,-0.0255 3.393709,0.33407 0.29682,0.14984 0.72681,0.31432 1.43264,0.54803 1.03992,0.34432 2.77978,1.28359 4.07817,2.20161 1.2438,0.87941 3.30035,3.27541 3.97807,4.63467 0.40781,0.81793 0.70497,2.04007 0.82702,3.40138 0.0711,0.79291 0.0754,2.39652 0.007,2.79253 -0.22459,1.30929 -0.55459,2.39571 -1.03211,3.39788 -0.74289,1.55908 -1.90317,2.99465 -3.40569,4.21372 -0.43287,0.3512 -1.73287,1.13326 -2.53487,1.52494 -0.88245,0.43097 -2.10387,0.81711 -3.30636,1.04528 -1.38471,0.26275 -2.9067,0.369 -4.386436,0.30621 z m 19.661806,54.244529 c -0.79684,-0.16746 -1.523,-0.72511 -1.86866,-1.43504 -0.17984,-0.36937 -0.31354,-0.89221 -0.31354,-1.22617 0,-0.33396 0.1337,-0.8568 0.31354,-1.22618 0.2473,-0.50789 0.67549,-0.93567 1.18857,-1.1874 0.70629,-0.34652 -0.45359,-0.31977 13.826508,-0.31891 14.22601,8.4e-4 13.0764,-0.0254 13.76732,0.31389 0.69883,0.34314 1.23739,1.01163 1.4321,1.77761 0.0856,0.33673 0.0856,0.94524 0,1.28198 -0.25502,1.00322 -1.10154,1.81403 -2.11541,2.02616 -0.46626,0.0976 -25.765218,0.0918 -26.230428,-0.006 z m 37.449998,-0.0415 c -0.9532,-0.25034 -1.71789,-1.02189 -1.96111,-1.9787 -0.0367,-0.14452 -0.0668,-0.43296 -0.0668,-0.64099 0,-0.74676 0.25843,-1.36855 0.78953,-1.89965 0.53109,-0.53109 1.15289,-0.78952 1.89964,-0.78952 0.74676,0 1.36855,0.25843 1.89965,0.78952 0.53109,0.5311 0.78952,1.15289 0.78952,1.89965 0,0.74675 -0.25843,1.36855 -0.78952,1.89965 -0.36469,0.36468 -0.77344,0.59939 -1.25866,0.72273 -0.32727,0.0832 -0.98039,0.0818 -1.30226,-0.003 z m -22.52731,-17.10995 c -0.72425,-0.12124 -1.57786,-0.7127 -1.92836,-1.33617 -0.25442,-0.452549 -0.34155,-0.801179 -0.34155,-1.366629 0,-0.41299 0.019,-0.56418 0.10262,-0.81557 0.28203,-0.84811 0.88247,-1.44721 1.80247,-1.79844 l 0.25461,-0.0972 18.52796,-0.0113 c 20.64996,-0.0126 18.83732,-0.0408 19.53923,0.30391 0.28785,0.14137 0.4523,0.26164 0.70936,0.51882 0.53113,0.53139 0.78952,1.15315 0.78952,1.89981 0,0.74666 -0.25839,1.368419 -0.78952,1.899809 -0.25711,0.25723 -0.42145,0.37742 -0.70936,0.51879 -0.69671,0.34209 1.09279,0.31372 -19.41934,0.30789 -10.13509,-0.003 -18.47703,-0.0135 -18.53764,-0.0237 z m 2.53487,-15.074299 c -0.79737,-0.16805 -1.52304,-0.72541 -1.86865,-1.43523 -0.17985,-0.36937 -0.31354,-0.89221 -0.31354,-1.22617 0,-0.33396 0.13369,-0.8568 0.31354,-1.22618 0.24716,-0.50762 0.67539,-0.93552 1.18857,-1.18766 0.7138,-0.35072 -0.77847,-0.32299 16.63877,-0.30921 l 15.56192,0.0123 0.2692,0.093 c 0.89315,0.30853 1.51522,0.91378 1.80868,1.75976 0.10553,0.30427 0.12175,0.4185 0.12175,0.85798 0,0.43947 -0.0162,0.55371 -0.12175,0.85797 -0.29345,0.84598 -0.91552,1.45123 -1.80868,1.75977 l -0.2692,0.093 -15.60601,0.008 c -13.60774,0.007 -15.64552,-4.8e-4 -15.9146,-0.0572 z m 40.84453,-0.0417 c -0.9532,-0.25034 -1.71789,-1.02189 -1.96111,-1.97871 -0.0367,-0.14451 -0.0668,-0.43295 -0.0668,-0.64098 0,-0.74676 0.25842,-1.36855 0.78952,-1.89965 0.5311,-0.53109 1.15289,-0.78952 1.89965,-0.78952 0.74675,0 1.36855,0.25843 1.89964,0.78952 0.5311,0.5311 0.78953,1.15289 0.78953,1.89965 0,0.74675 -0.25843,1.36855 -0.78953,1.89964 -0.36468,0.36469 -0.77343,0.59939 -1.25866,0.72274 -0.32727,0.0832 -0.98038,0.0818 -1.30226,-0.003 z m -40.84453,-22.75012 c -0.79745,-0.16814 -1.52305,-0.72545 -1.86865,-1.43525 -0.17985,-0.36938 -0.31354,-0.89222 -0.31354,-1.22618 0,-0.33396 0.13369,-0.8568 0.31354,-1.22617 0.24716,-0.50762 0.67539,-0.93553 1.18857,-1.18767 0.7114,-0.34953 -0.53653,-0.32302 14.56678,-0.30947 l 13.48994,0.0121 0.30859,0.10273 c 1.73251,0.57676 2.46742,2.4974 1.53986,4.02432 -0.32947,0.54235 -0.88956,0.97616 -1.53986,1.19265 l -0.30859,0.10273 -13.53402,0.008 c -11.78354,0.007 -13.57394,-8e-4 -13.84262,-0.0574 z m 42.49762,-0.0521 c -1.019,-0.30054 -1.73168,-1.06921 -1.93729,-2.08946 -0.0857,-0.42544 -0.0859,-0.61224 -9.2e-4,-1.03971 0.18781,-0.94488 0.85761,-1.71217 1.78402,-2.04368 0.24417,-0.0874 0.37129,-0.10254 0.85965,-0.10254 0.48836,0 0.61547,0.0152 0.85965,0.10254 0.68177,0.24396 1.2444,0.73411 1.5402,1.34176 0.17773,0.36509 0.31136,0.88948 0.31136,1.22177 0,0.3323 -0.13363,0.85669 -0.31136,1.22177 -0.29662,0.60934 -0.865,1.10356 -1.5402,1.33925 -0.39263,0.13706 -1.18162,0.1614 -1.5651,0.0483 z M 101.3459,45.283171 c -0.76553,-0.16442 -1.538848,-0.75721 -1.865908,-1.43033 -0.21375,-0.4399 -0.29424,-0.77758 -0.29424,-1.23437 0,-0.4568 0.0805,-0.79448 0.29424,-1.23438 0.33159,-0.68244 1.104228,-1.2688 1.887958,-1.43278 0.46954,-0.0983 39.07945,-0.0976 39.54403,7.1e-4 1.02387,0.21655 1.8588,1.01598 2.11541,2.02547 0.0856,0.33673 0.0856,0.94524 0,1.28197 -0.19527,0.76818 -0.74597,1.4515 -1.43675,1.78275 -0.7019,0.33657 1.19483,0.30829 -20.47272,0.30525 -16.50173,-0.002 -19.52934,-0.0122 -19.77202,-0.0643 z m -11.638368,-17.9425 c -0.76553,-0.16442 -1.53886,-0.75721 -1.86592,-1.43033 -0.21375,-0.43989 -0.29424,-0.77757 -0.29424,-1.23437 0,-0.74667 0.25839,-1.36842 0.78953,-1.89981 0.25711,-0.25723 0.42145,-0.37742 0.70936,-0.51879 0.69739,-0.34243 -1.28301,-0.31304 21.151518,-0.31389 18.12132,-6.9e-4 20.19338,0.006 20.4936,0.0682 1.10877,0.22902 1.92969,1.04753 2.15074,2.14441 0.0859,0.42645 0.0859,0.61325 0,1.03971 -0.22105,1.09688 -1.04197,1.91539 -2.15074,2.14441 -0.30034,0.062 -2.3674,0.0686 -20.51564,0.0655 -17.095428,-0.003 -20.225478,-0.0129 -20.468208,-0.0651 z m 53.408588,-0.0554 c -1.01899,-0.30054 -1.73168,-1.06921 -1.93728,-2.08946 -0.0857,-0.42544 -0.0859,-0.61224 -9.3e-4,-1.03971 0.18782,-0.94488 0.85762,-1.71217 1.78402,-2.04368 0.24418,-0.0874 0.37129,-0.10254 0.85965,-0.10254 0.48836,0 0.61548,0.0152 0.85966,0.10254 0.68176,0.24397 1.2444,0.73411 1.5402,1.34176 0.17772,0.36509 0.31136,0.88948 0.31136,1.22177 0,0.3323 -0.13364,0.85668 -0.31136,1.22177 -0.29662,0.60934 -0.86501,1.10356 -1.5402,1.33925 -0.39264,0.13706 -1.18163,0.1614 -1.56511,0.0483 z"
      id="path426" /></g></svg>
